<svg width="43" height="42" viewBox="0 0 43 42" fill="none" xmlns="http://www.w3.org/2000/svg">
<path d="M14.8849 27.615C16.0545 27.615 17.1762 27.1504 18.0032 26.3233C18.8302 25.4963 19.2949 24.3746 19.2949 23.205C19.2949 22.0354 18.8302 20.9137 18.0032 20.0866C17.1762 19.2596 16.0545 18.795 14.8849 18.795C13.7153 18.795 12.5936 19.2596 11.7665 20.0866C10.9395 20.9137 10.4749 22.0354 10.4749 23.205C10.4749 24.3746 10.9395 25.4963 11.7665 26.3233C12.5936 27.1504 13.7153 27.615 14.8849 27.615ZM14.8849 21C15.4697 21 16.0305 21.2323 16.444 21.6458C16.8576 22.0593 17.0899 22.6202 17.0899 23.205C17.0899 23.7898 16.8576 24.3506 16.444 24.7642C16.0305 25.1777 15.4697 25.41 14.8849 25.41C14.3001 25.41 13.7392 25.1777 13.3257 24.7642C12.9122 24.3506 12.6799 23.7898 12.6799 23.205C12.6799 22.6202 12.9122 22.0593 13.3257 21.6458C13.7392 21.2323 14.3001 21 14.8849 21ZM20.3974 29.82H9.37236C8.64845 29.82 7.93163 29.9626 7.26282 30.2396C6.59401 30.5166 5.98632 30.9227 5.47444 31.4346C4.96255 31.9464 4.55651 32.5541 4.27948 33.2229C4.00245 33.8917 3.85986 34.6086 3.85986 35.3325C3.85986 36.2097 4.20833 37.051 4.82861 37.6712C5.44889 38.2915 6.29016 38.64 7.16736 38.64H22.6024C23.4796 38.64 24.3208 38.2915 24.9411 37.6712C25.5614 37.051 25.9099 36.2097 25.9099 35.3325C25.9099 33.8705 25.3291 32.4684 24.2953 31.4346C23.2615 30.4008 21.8594 29.82 20.3974 29.82ZM22.6024 36.435H7.16736C6.87496 36.435 6.59454 36.3188 6.38778 36.1121C6.18102 35.9053 6.06486 35.6249 6.06486 35.3325C6.06486 34.4553 6.41333 33.614 7.03361 32.9937C7.65389 32.3735 8.49516 32.025 9.37236 32.025H20.3974C21.2746 32.025 22.1158 32.3735 22.7361 32.9937C23.3564 33.614 23.7049 34.4553 23.7049 35.3325C23.7049 35.6249 23.5887 35.9053 23.3819 36.1121C23.1752 36.3188 22.8948 36.435 22.6024 36.435ZM39.1399 8.87249V19.8975C39.1399 21.3595 38.5591 22.7616 37.5253 23.7954C36.4915 24.8292 35.0894 25.41 33.6274 25.41H27.4688L23.3829 29.4981C23.2804 29.6004 23.1586 29.6815 23.0247 29.7367C22.8908 29.7919 22.7472 29.8202 22.6024 29.82C22.4578 29.8206 22.3146 29.7921 22.1812 29.7362C21.9796 29.6529 21.8072 29.5116 21.6859 29.3302C21.5647 29.1489 21.4999 28.9356 21.4999 28.7175V24.3075C21.4999 24.0151 21.616 23.7347 21.8228 23.5279C22.0295 23.3211 22.31 23.205 22.6024 23.205C22.8948 23.205 23.1752 23.3211 23.3819 23.5279C23.5887 23.7347 23.7049 24.0151 23.7049 24.3075V26.056L26.2318 23.5269C26.3344 23.4246 26.4561 23.3435 26.59 23.2883C26.724 23.233 26.8675 23.2047 27.0124 23.205H33.6274C34.5046 23.205 35.3458 22.8565 35.9661 22.2362C36.5864 21.616 36.9349 20.7747 36.9349 19.8975V8.87249C36.9349 7.99528 36.5864 7.15401 35.9661 6.53373C35.3458 5.91345 34.5046 5.56499 33.6274 5.56499H18.1924C17.3152 5.56499 16.4739 5.91345 15.8536 6.53373C15.2333 7.15401 14.8849 7.99528 14.8849 8.87249V15.4875C14.8849 15.7799 14.7687 16.0603 14.5619 16.2671C14.3552 16.4738 14.0748 16.59 13.7824 16.59C13.49 16.59 13.2095 16.4738 13.0028 16.2671C12.796 16.0603 12.6799 15.7799 12.6799 15.4875V8.87249C12.6799 7.41048 13.2606 6.00835 14.2944 4.97456C15.3282 3.94076 16.7304 3.35999 18.1924 3.35999H33.6274C35.0894 3.35999 36.4915 3.94076 37.5253 4.97456C38.5591 6.00835 39.1399 7.41048 39.1399 8.87249ZM24.0268 18.4731L19.6168 14.0631C19.5141 13.9606 19.4327 13.839 19.3771 13.705C19.3215 13.5711 19.2929 13.4275 19.2929 13.2825C19.2929 13.1375 19.3215 12.9939 19.3771 12.8599C19.4327 12.726 19.5141 12.6043 19.6168 12.5019C19.7192 12.3992 19.8409 12.3178 19.9748 12.2622C20.1088 12.2066 20.2523 12.178 20.3974 12.178C20.5424 12.178 20.686 12.2066 20.8199 12.2622C20.9539 12.3178 21.0755 12.3992 21.1779 12.5019L24.8074 16.1336L30.6418 10.2969C30.7442 10.1942 30.8659 10.1128 30.9998 10.0572C31.1338 10.0016 31.2773 9.97301 31.4224 9.97301C31.5674 9.97301 31.711 10.0016 31.8449 10.0572C31.9789 10.1128 32.1005 10.1942 32.2029 10.2969C32.3056 10.3993 32.3871 10.521 32.4426 10.6549C32.4982 10.7889 32.5268 10.9325 32.5268 11.0775C32.5268 11.2225 32.4982 11.3661 32.4426 11.5C32.3871 11.634 32.3056 11.7556 32.2029 11.8581L25.5879 18.4731C25.4854 18.5754 25.3636 18.6565 25.2297 18.7117C25.0958 18.7669 24.9522 18.7952 24.8074 18.795C24.6625 18.7952 24.519 18.7669 24.385 18.7117C24.2511 18.6565 24.1294 18.5754 24.0268 18.4731Z" fill="#9FE612"/>
</svg>
