<svg width="43" height="42" viewBox="0 0 43 42" fill="none" xmlns="http://www.w3.org/2000/svg">
<path d="M14.3661 11.9458C14.6053 12.1177 14.7255 12.3104 14.8009 12.5954C14.8619 12.9679 14.8312 13.3067 14.6248 13.629C14.3639 13.8678 14.0889 14.0043 13.765 14.134C13.7156 14.1544 13.6661 14.1747 13.6152 14.1957C13.4577 14.2604 13.3 14.3242 13.1422 14.388C13.0381 14.4306 12.934 14.4732 12.83 14.5159C12.6774 14.5784 12.5248 14.6408 12.372 14.7029C12.0046 14.8521 11.6399 15.0072 11.2767 15.1665C11.1182 15.2252 11.1182 15.2252 10.9119 15.2252C10.9119 15.271 10.9119 15.3168 10.9119 15.364C10.9599 15.372 11.0078 15.38 11.0572 15.3883C11.2771 15.4382 11.4718 15.5129 11.6806 15.5984C11.7442 15.6242 11.7442 15.6242 11.809 15.6506C11.9027 15.6887 11.9964 15.727 12.09 15.7653C12.3009 15.8518 12.5122 15.9376 12.7234 16.0234C12.8416 16.0715 12.9597 16.1195 13.0778 16.1676C13.8061 16.4639 14.5358 16.7567 15.2654 17.0497C15.5103 17.148 15.7551 17.2464 16 17.3448C16.3324 17.4784 16.6649 17.612 16.9974 17.7455C17.5939 17.9852 18.1903 18.2248 18.7868 18.4645C19.184 18.6241 19.5812 18.7837 19.9785 18.9433C20.0507 18.9723 20.123 19.0013 20.1974 19.0312C20.3318 19.0852 20.4662 19.1392 20.6006 19.1932C20.66 19.2171 20.7195 19.241 20.7808 19.2656C20.8352 19.2872 20.8896 19.3088 20.9457 19.3311C21.0589 19.3772 21.1703 19.4278 21.2809 19.4799C21.558 19.568 21.8193 19.4494 22.0802 19.3443C22.1391 19.3207 22.1981 19.2971 22.2589 19.2728C22.3228 19.2468 22.3866 19.2209 22.4525 19.1942C22.5205 19.1669 22.5886 19.1396 22.6587 19.1114C22.8848 19.0205 23.1107 18.9292 23.3367 18.8379C23.4961 18.7737 23.6555 18.7096 23.8149 18.6455C24.194 18.4929 24.573 18.3401 24.9519 18.1871C25.4134 18.0009 25.875 17.8151 26.3366 17.6293C28.1946 16.8811 28.1946 16.8811 30.0513 16.1293C30.2435 16.0513 30.4358 15.9733 30.6281 15.8953C30.8048 15.8236 30.9814 15.7515 31.158 15.6795C31.2627 15.637 31.3674 15.5946 31.4721 15.5521C31.5193 15.5328 31.5665 15.5134 31.6151 15.4935C31.9357 15.364 31.9357 15.364 32.0889 15.364C32.0889 15.3182 32.0889 15.2724 32.0889 15.2252C32.0021 15.2015 31.9153 15.1779 31.8259 15.1536C31.2981 14.9936 30.7912 14.778 30.2814 14.5679C30.1072 14.4962 29.9328 14.4252 29.7583 14.3542C29.6466 14.3084 29.5349 14.2626 29.4232 14.2167C29.3715 14.1957 29.3198 14.1746 29.2665 14.153C28.4959 13.834 28.4959 13.834 28.2887 13.4319C28.1572 13.0394 28.1763 12.6515 28.3502 12.2801C28.6365 11.9683 28.9231 11.7731 29.3474 11.7369C29.6749 11.7595 29.9279 11.855 30.2298 11.9791C30.3194 12.0148 30.3194 12.0148 30.4109 12.0512C30.6075 12.1299 30.8037 12.2097 30.9998 12.2896C31.1368 12.3448 31.2739 12.4 31.411 12.4551C31.6979 12.5707 31.9846 12.687 32.2711 12.8036C32.6377 12.9528 33.0049 13.1006 33.3723 13.2479C33.6554 13.3615 33.9381 13.476 34.2208 13.5906C34.356 13.6454 34.4914 13.6999 34.6268 13.7542C34.8163 13.8303 35.0054 13.9075 35.1945 13.9849C35.2501 14.007 35.3057 14.0291 35.363 14.0519C35.7775 14.2234 36.1694 14.4293 36.3635 14.8615C36.3862 14.9105 36.4088 14.9594 36.4321 15.0099C36.455 15.0624 36.478 15.1149 36.5016 15.169C36.5271 15.225 36.5525 15.2809 36.5787 15.3385C36.6617 15.5215 36.7431 15.7051 36.8245 15.8888C36.882 16.0165 36.9396 16.1442 36.9972 16.2718C37.1733 16.6624 37.3472 17.054 37.5206 17.4459C37.5609 17.5367 37.5609 17.5367 37.6019 17.6293C37.8202 18.1219 38.0382 18.6147 38.2535 19.1086C38.2745 19.1566 38.2954 19.2045 38.317 19.2539C38.3578 19.3475 38.3986 19.4412 38.4393 19.5348C38.5414 19.7686 38.6465 20.0003 38.757 20.2301C38.7903 20.3 38.7903 20.3 38.8243 20.3712C38.8855 20.4987 38.9475 20.6259 39.0096 20.7529C39.1524 21.1118 39.1734 21.4397 39.102 21.818C38.8052 22.5046 37.9529 22.7298 37.3144 22.9847C37.2274 23.0199 37.1405 23.0551 37.0536 23.0903C36.8427 23.1756 36.6317 23.2604 36.4205 23.3447C36.4204 23.4182 36.4204 23.4182 36.4202 23.4931C36.4177 24.6851 36.4136 25.8771 36.4079 27.0692C36.4051 27.6456 36.4029 28.2221 36.4019 28.7985C36.401 29.301 36.3991 29.8035 36.3961 30.3059C36.3946 30.572 36.3935 30.838 36.3936 31.104C36.3936 31.3545 36.3924 31.605 36.3902 31.8555C36.3893 31.991 36.3898 32.1265 36.3903 32.2621C36.3816 33.0057 36.3816 33.0057 36.0767 33.338C35.7393 33.6172 35.3544 33.7442 34.9476 33.8872C34.8413 33.9254 34.8413 33.9254 34.7327 33.9644C34.4991 34.0482 34.2652 34.1312 34.0312 34.2142C33.8666 34.2731 33.7021 34.332 33.5375 34.391C33.198 34.5127 32.8585 34.6342 32.5188 34.7556C31.8447 34.9967 31.1718 35.2414 30.4991 35.4863C30.2157 35.5895 29.9322 35.6926 29.6487 35.7956C29.5066 35.8473 29.3646 35.8989 29.2225 35.9506C28.7928 36.1068 28.3631 36.263 27.9334 36.419C27.7887 36.4715 27.644 36.5241 27.4993 36.5767C27.1412 36.7067 26.7831 36.8367 26.4248 36.9662C25.7704 37.2031 25.1168 37.4419 24.4655 37.6878C24.1698 37.7994 23.8738 37.91 23.5777 38.0206C23.4381 38.0731 23.2986 38.1261 23.1594 38.1796C22.9665 38.2536 22.7731 38.326 22.5795 38.3981C22.524 38.4199 22.4685 38.4418 22.4114 38.4643C21.3835 38.8403 20.582 38.4519 19.6276 38.0522C19.4816 37.9923 19.3356 37.9326 19.1895 37.873C18.796 37.712 18.4033 37.5494 18.0107 37.3864C17.601 37.2166 17.1906 37.0484 16.7803 36.8801C16.2735 36.6722 15.7667 36.4642 15.2602 36.2555C14.1112 35.7824 12.9595 35.3163 11.8057 34.855C11.6531 34.7939 11.5004 34.7327 11.3477 34.6716C10.4752 34.3222 10.4752 34.3222 9.60217 33.9741C9.26639 33.8406 8.9309 33.7063 8.59561 33.5714C8.47332 33.5224 8.35092 33.4737 8.22841 33.4252C8.06157 33.3593 7.89513 33.2923 7.72876 33.2251C7.68071 33.2064 7.63265 33.1877 7.58314 33.1684C7.2336 33.0255 6.91494 32.8496 6.70761 32.5177C6.63626 32.3335 6.63101 32.1884 6.62987 31.9906C6.62911 31.9143 6.62834 31.838 6.62755 31.7594C6.6274 31.676 6.62725 31.5926 6.6271 31.5068C6.62641 31.4187 6.62572 31.3307 6.625 31.24C6.62313 30.9988 6.62209 30.7577 6.62119 30.5165C6.62012 30.2644 6.61828 30.0123 6.61652 29.7602C6.6133 29.2829 6.61077 28.8056 6.60849 28.3283C6.60586 27.7849 6.60247 27.2415 6.59901 26.698C6.5919 25.5803 6.58576 24.4625 6.58026 23.3447C6.51786 23.3192 6.45545 23.2937 6.39115 23.2674C6.15788 23.1718 5.92502 23.0752 5.69227 22.9783C5.59182 22.9367 5.49126 22.8953 5.39059 22.8542C5.24521 22.7947 5.10026 22.7344 4.95536 22.6738C4.91086 22.6558 4.86637 22.6379 4.82053 22.6194C4.46967 22.471 4.1602 22.2814 3.94429 21.9576C3.68818 21.1722 4.08027 20.492 4.41444 19.8054C4.49489 19.6355 4.57478 19.4654 4.65467 19.2952C4.70962 19.1783 4.76475 19.0616 4.82007 18.9449C5.08522 18.3848 5.33494 17.8183 5.58234 17.2501C5.69567 16.9902 5.81004 16.7308 5.92439 16.4713C5.96663 16.3755 6.00886 16.2797 6.05109 16.1839C6.07087 16.139 6.09064 16.0942 6.11101 16.048C6.16376 15.9281 6.21628 15.8082 6.26878 15.6883C6.35147 15.5001 6.43546 15.3127 6.5201 15.1254C6.54195 15.075 6.5638 15.0246 6.58631 14.9726C6.84502 14.41 7.26181 14.2013 7.80522 13.9849C7.86475 13.9604 7.92429 13.936 7.98562 13.9109C8.18133 13.8308 8.37746 13.752 8.57366 13.6732C8.71051 13.6177 8.84734 13.5622 8.98415 13.5066C9.2705 13.3906 9.55707 13.2751 9.84381 13.16C10.2106 13.0127 10.5768 12.8638 10.9429 12.7145C11.2251 12.5996 11.5078 12.4856 11.7905 12.3718C11.9256 12.3173 12.0607 12.2625 12.1956 12.2073C12.3844 12.1303 12.5737 12.0546 12.7632 11.9791C12.8184 11.9563 12.8737 11.9335 12.9306 11.91C13.4373 11.7109 13.8785 11.6683 14.3661 11.9458ZM8.29917 16.7519C8.26909 16.8207 8.239 16.8895 8.20801 16.9603C8.06815 17.2799 7.928 17.5993 7.7878 17.9187C7.76275 17.9758 7.7377 18.0329 7.71189 18.0918C7.40074 18.8008 7.08871 19.5087 6.74452 20.2022C6.62828 20.4411 6.58026 20.574 6.58026 20.8464C8.45307 21.6385 10.3268 22.4285 12.2014 23.2163C12.7098 23.4299 13.2181 23.6439 13.7264 23.8579C13.9465 23.9505 14.1666 24.0432 14.3868 24.1359C14.5251 24.1941 14.6634 24.2523 14.8017 24.3106C15.7495 24.7099 16.699 25.1048 17.65 25.496C17.8655 25.2406 18.0288 24.9749 18.181 24.6782C18.2046 24.6331 18.2281 24.588 18.2524 24.5415C18.3284 24.3958 18.4039 24.2498 18.4794 24.1038C18.5838 23.9031 18.6884 23.7027 18.7931 23.5022C18.8317 23.4281 18.8317 23.4281 18.8711 23.3526C19.1204 22.8755 19.378 22.4032 19.6406 21.9334C19.7948 21.6829 19.7948 21.6829 19.8502 21.4016C18.0431 20.6337 16.2195 19.9074 14.3974 19.1768C13.9012 18.9779 13.4051 18.7787 12.909 18.5796C12.5117 18.4201 12.1144 18.2607 11.7171 18.1013C11.0582 17.837 10.3994 17.5725 9.74141 17.306C9.69101 17.2856 9.64061 17.2652 9.58869 17.2442C9.36506 17.1536 9.1415 17.0629 8.91803 16.972C8.84449 16.9422 8.77095 16.9124 8.69518 16.8816C8.63278 16.8562 8.57038 16.8308 8.50609 16.8047C8.38183 16.7478 8.38183 16.7478 8.29917 16.7519ZM34.0484 16.9847C33.9561 17.022 33.9561 17.022 33.8619 17.06C33.6556 17.1433 33.4493 17.2268 33.243 17.3103C33.0971 17.3693 32.9513 17.4282 32.8055 17.4871C32.4174 17.6439 32.0293 17.8008 31.6412 17.9578C31.2609 18.1117 30.8805 18.2654 30.5001 18.4191C30.0461 18.6025 29.5922 18.786 29.1383 18.9696C28.36 19.2843 27.5817 19.5987 26.8032 19.9126C26.6472 19.9755 26.4912 20.0385 26.3353 20.1014C26.1129 20.1911 25.8904 20.2808 25.668 20.3704C24.8268 20.7092 23.9871 21.0513 23.1505 21.4016C23.2376 21.6719 23.3307 21.9172 23.4656 22.1668C23.5009 22.2325 23.5362 22.2982 23.5726 22.3659C23.6106 22.4355 23.6486 22.5052 23.6877 22.577C23.7269 22.6495 23.7661 22.7221 23.8065 22.7968C24.127 23.3878 24.4542 23.9749 24.7851 24.56C24.8377 24.6532 24.8377 24.6532 24.8915 24.7484C24.9222 24.8025 24.9528 24.8566 24.9844 24.9123C25.0891 25.1043 25.186 25.2995 25.282 25.496C26.0434 25.2157 26.793 24.9121 27.5396 24.5939C27.7962 24.4845 28.0531 24.3757 28.3099 24.2668C28.4459 24.2091 28.5819 24.1514 28.7178 24.0937C29.4669 23.7758 30.2171 23.4604 30.9673 23.1452C31.1039 23.0878 31.2405 23.0303 31.3771 22.9729C31.7251 22.8266 32.0731 22.6804 32.4211 22.5341C33.0291 22.2785 33.6372 22.023 34.2453 21.7673C34.4606 21.6768 34.6759 21.5863 34.8913 21.4958C35.023 21.4405 35.1546 21.3851 35.2863 21.3297C35.3751 21.2924 35.3751 21.2924 35.4658 21.2544C35.7848 21.1202 36.1031 20.9844 36.4205 20.8464C36.3808 20.4683 36.2483 20.1703 36.0888 19.8314C36.0624 19.7743 36.036 19.7171 36.0088 19.6582C35.9245 19.4757 35.8395 19.2936 35.7544 19.1114C35.6437 18.873 35.5331 18.6344 35.4227 18.3958C35.3961 18.3383 35.3694 18.2808 35.342 18.2215C35.1178 17.736 34.9061 17.2461 34.7016 16.7519C34.4944 16.7519 34.2429 16.9059 34.0484 16.9847ZM8.84922 24.3163C8.84922 26.5835 8.84922 28.8507 8.84922 31.1867C9.48737 31.4443 10.1255 31.702 10.783 31.9674C10.9796 32.0468 11.1762 32.1261 11.3787 32.2079C11.4607 32.241 11.5427 32.2741 11.6271 32.3082C11.8001 32.378 11.9731 32.4479 12.146 32.5177C12.5897 32.6969 13.0334 32.876 13.4771 33.0549C14.324 33.3966 15.1706 33.739 16.0168 34.0826C16.4154 34.2445 16.8141 34.4061 17.2128 34.5677C17.5048 34.686 17.7968 34.8044 18.0886 34.9232C18.377 35.0405 18.6656 35.1576 18.9543 35.2743C19.063 35.3184 19.1717 35.3625 19.2803 35.4068C19.43 35.4679 19.58 35.5285 19.73 35.589C19.7742 35.6072 19.8184 35.6254 19.864 35.6441C20.0551 35.7207 20.1923 35.7669 20.4003 35.7669C20.4003 32.3317 20.4003 28.8965 20.4003 25.3573C20.2384 25.5751 20.117 25.7684 19.9929 26.0068C19.9551 26.0785 19.9173 26.1503 19.8783 26.2242C19.8001 26.3737 19.722 26.5234 19.6441 26.6731C19.0344 27.828 19.0344 27.828 18.6126 27.9944C17.8 28.1776 17.0137 27.7059 16.2921 27.3871C16.1464 27.3241 16.0006 27.2612 15.8547 27.1984C15.5512 27.0677 15.2479 26.9363 14.9448 26.8044C14.2901 26.5202 13.6316 26.2451 12.9732 25.9697C12.6308 25.8263 12.2886 25.6825 11.9465 25.5386C11.8817 25.5114 11.8168 25.4841 11.7501 25.456C11.3373 25.2822 10.9251 25.1071 10.5133 24.9308C10.4122 24.8876 10.311 24.8444 10.2099 24.8012C10.0275 24.7234 9.84541 24.645 9.6634 24.5664C9.58502 24.5329 9.50663 24.4994 9.42586 24.4648C9.35865 24.4359 9.29144 24.4069 9.2222 24.3771C9.0527 24.3045 9.0527 24.3045 8.84922 24.3163ZM33.3944 24.5407C33.3381 24.5647 33.2818 24.5886 33.2237 24.6133C33.1007 24.6656 32.9778 24.7181 32.855 24.7707C32.6577 24.8553 32.4603 24.9394 32.2628 25.0234C32.0539 25.1122 31.8451 25.201 31.6363 25.29C31.1399 25.5015 30.6429 25.7117 30.1454 25.9208C30.0762 25.95 30.0069 25.9791 29.9356 26.0091C29.5877 26.1553 29.2398 26.3012 28.8917 26.4469C28.3046 26.6927 27.718 26.9391 27.1351 27.195C26.9085 27.2945 26.6814 27.393 26.4544 27.4915C26.3508 27.5368 26.2474 27.5826 26.1443 27.629C25.5686 27.8881 25.0324 28.1134 24.3882 27.9944C24.0197 27.8284 23.8628 27.5736 23.6834 27.2223C23.6309 27.1238 23.5783 27.0253 23.5257 26.9268C23.4986 26.8751 23.4714 26.8234 23.4435 26.7701C23.291 26.482 23.1321 26.1975 22.9744 25.9124C22.9155 25.8055 22.8567 25.6985 22.7979 25.5915C22.7554 25.5142 22.713 25.4369 22.6692 25.3573C22.6466 25.3573 22.6239 25.3573 22.6005 25.3573C22.6005 28.8153 22.6005 32.2734 22.6005 35.8363C23.1 35.7278 23.1 35.7278 23.5756 35.5764C23.639 35.553 23.7024 35.5297 23.7677 35.5056C23.835 35.4804 23.9023 35.4552 23.9716 35.4292C24.0441 35.4023 24.1167 35.3755 24.1915 35.3479C24.3483 35.2899 24.5051 35.2317 24.6618 35.1733C25.0428 35.0315 25.4242 34.8908 25.8056 34.75C25.894 34.7174 25.9823 34.6848 26.0706 34.6522C27.032 34.2969 27.996 33.9492 28.9605 33.6026C30.1366 33.1795 31.3125 32.7557 32.487 32.3281C32.6304 32.2759 32.7737 32.2238 32.9171 32.1718C33.113 32.1007 33.3088 32.0293 33.5046 31.9579C33.5626 31.9369 33.6207 31.9158 33.6806 31.8942C33.9354 31.817 33.9354 31.817 34.1516 31.6725C34.1581 31.5768 34.1599 31.4808 34.1598 31.3848C34.1599 31.3229 34.16 31.2609 34.1601 31.197C34.1599 31.1285 34.1596 31.0599 34.1594 30.9893C34.1594 30.8817 34.1594 30.8817 34.1594 30.7719C34.1593 30.5334 34.1588 30.295 34.1583 30.0565C34.1581 29.8917 34.158 29.7269 34.158 29.562C34.1577 29.1272 34.157 28.6924 34.1563 28.2577C34.1556 27.8144 34.1553 27.3711 34.1549 26.9278C34.1542 26.0573 34.153 25.1868 34.1516 24.3163C33.87 24.3163 33.6492 24.4309 33.3944 24.5407Z" fill="#9FE612"/>
<path d="M25.6139 4.70367C26.967 5.80591 27.9872 7.32725 28.1925 9.09025C28.3324 11.0665 27.9912 12.7973 26.7181 14.3573C25.5736 15.6678 24.0225 16.6402 22.2536 16.7652C20.2224 16.8554 18.484 16.4376 16.9505 15.0435C15.6913 13.8628 14.8627 12.3137 14.7852 10.5726C14.7356 8.58814 15.2149 6.90217 16.6004 5.42579C19.0051 2.98705 22.863 2.60212 25.6139 4.70367ZM18.3138 6.94483C17.3829 7.95358 17.0241 9.10254 17.0782 10.4581C17.1607 11.6253 17.7291 12.6107 18.5752 13.4072C19.6766 14.3139 20.8688 14.5625 22.2688 14.4516C23.4643 14.2627 24.4765 13.5185 25.1827 12.5586C25.8616 11.5382 26.0567 10.3351 25.8661 9.13081C25.6118 7.98534 24.8874 6.98315 23.9087 6.34184C22.0463 5.21907 19.9159 5.49137 18.3138 6.94483Z" fill="#9FE612"/>
<path d="M24.1742 8.49736C24.4633 8.66224 24.6717 8.84794 24.8344 9.12233C24.8884 9.47554 24.8742 9.76335 24.6791 10.0768C24.511 10.2795 24.328 10.4384 24.1138 10.5977C24.0746 10.6275 24.0354 10.6572 23.9951 10.6879C23.6372 10.958 23.2726 11.2204 22.9066 11.4813C22.7275 11.6092 22.5502 11.739 22.3737 11.8699C22.3037 11.9217 22.3037 11.9217 22.2323 11.9746C22.1424 12.0414 22.0526 12.1083 21.963 12.1755C21.6191 12.4302 21.3937 12.5662 20.9378 12.5715C20.8682 12.5733 20.7986 12.5751 20.7269 12.577C20.2848 12.5161 19.9768 12.2006 19.6724 11.9211C19.6335 11.8857 19.5945 11.8503 19.5544 11.8138C19.4728 11.7393 19.3913 11.6647 19.3101 11.5899C19.1859 11.4758 19.0608 11.3627 18.9356 11.2495C18.8561 11.1768 18.7766 11.104 18.6972 11.0311C18.6599 10.9975 18.6227 10.964 18.5843 10.9294C18.2836 10.6503 18.1484 10.4158 18.1416 10.0242C18.1507 9.69316 18.2209 9.51862 18.4437 9.25681C18.7882 9.00544 19.0621 8.97467 19.4968 8.97004C19.9878 9.0571 20.3091 9.4402 20.6306 9.76423C20.7455 9.87829 20.7455 9.87829 20.9292 10.0163C21.1588 9.99775 21.2905 9.90527 21.4624 9.77078C21.5106 9.73356 21.5588 9.69634 21.6085 9.65799C21.6591 9.61828 21.7098 9.57857 21.762 9.53765C21.8674 9.45668 21.973 9.37584 22.0786 9.29513C22.13 9.25592 22.1813 9.21671 22.2342 9.17631C23.423 8.27905 23.423 8.27905 24.1742 8.49736Z" fill="#9FE612"/>
</svg>
