<svg width="42" height="42" viewBox="0 0 42 42" fill="none" xmlns="http://www.w3.org/2000/svg">
<g clip-path="url(#clip0_235_385)">
<path d="M21 21H5.25V23.625H21V21Z" fill="#9FE612"/>
<path d="M15.75 14.4375H2.625V17.0625H15.75V14.4375Z" fill="#9FE612"/>
<path d="M39.2683 21.7959L35.3308 12.6084C35.2299 12.3721 35.0618 12.1707 34.8474 12.0292C34.633 11.8877 34.3817 11.8123 34.1248 11.8125H30.1873V9.1875C30.1873 8.8394 30.049 8.50556 29.8029 8.25942C29.5567 8.01328 29.2229 7.875 28.8748 7.875H7.87478V10.5H27.5623V26.98C26.9643 27.3273 26.4409 27.7895 26.0224 28.34C25.6039 28.8905 25.2985 29.5184 25.1238 30.1875H16.8758C16.5563 28.9503 15.7966 27.872 14.739 27.1548C13.6814 26.4377 12.3986 26.1308 11.131 26.2918C9.86333 26.4529 8.69793 27.0707 7.85322 28.0294C7.00851 28.9882 6.54248 30.2222 6.54248 31.5C6.54248 32.7778 7.00851 34.0118 7.85322 34.9706C8.69793 35.9293 9.86333 36.5471 11.131 36.7082C12.3986 36.8692 13.6814 36.5623 14.739 35.8452C15.7966 35.128 16.5563 34.0497 16.8758 32.8125H25.1238C25.41 33.9383 26.0632 34.9366 26.9802 35.6497C27.8972 36.3627 29.0257 36.7499 30.1873 36.7499C31.3489 36.7499 32.4774 36.3627 33.3944 35.6497C34.3114 34.9366 34.9646 33.9383 35.2508 32.8125H38.0623C38.4104 32.8125 38.7442 32.6742 38.9904 32.4281C39.2365 32.1819 39.3748 31.8481 39.3748 31.5V22.3125C39.3747 22.1349 39.3385 21.9591 39.2683 21.7959ZM11.8123 34.125C11.2931 34.125 10.7856 33.971 10.3539 33.6826C9.92223 33.3942 9.58577 32.9842 9.38709 32.5045C9.18841 32.0249 9.13643 31.4971 9.23772 30.9879C9.339 30.4787 9.58901 30.011 9.95612 29.6438C10.3232 29.2767 10.791 29.0267 11.3002 28.9254C11.8094 28.8242 12.3372 28.8761 12.8168 29.0748C13.2965 29.2735 13.7064 29.6099 13.9949 30.0416C14.2833 30.4733 14.4373 30.9808 14.4373 31.5C14.4365 32.1959 14.1597 32.8632 13.6676 33.3553C13.1754 33.8474 12.5082 34.1242 11.8123 34.125ZM30.1873 14.4375H33.2596L36.0724 21H30.1873V14.4375ZM30.1873 34.125C29.6681 34.125 29.1606 33.971 28.7289 33.6826C28.2972 33.3942 27.9608 32.9842 27.7621 32.5045C27.5634 32.0249 27.5114 31.4971 27.6127 30.9879C27.714 30.4787 27.964 30.011 28.3311 29.6438C28.6982 29.2767 29.166 29.0267 29.6752 28.9254C30.1844 28.8242 30.7122 28.8761 31.1918 29.0748C31.6715 29.2735 32.0814 29.6099 32.3699 30.0416C32.6583 30.4733 32.8123 30.9808 32.8123 31.5C32.8115 32.1959 32.5347 32.8632 32.0426 33.3553C31.5504 33.8474 30.8832 34.1242 30.1873 34.125ZM36.7498 30.1875H35.2508C34.9616 29.0633 34.3076 28.0669 33.3912 27.3543C32.4749 26.6417 31.3481 26.2533 30.1873 26.25V23.625H36.7498V30.1875Z" fill="#9FE612"/>
</g>
<defs>
<clipPath id="clip0_235_385">
<rect width="42" height="42" fill="white"/>
</clipPath>
</defs>
</svg>
