<svg width="24" height="24" viewBox="0 0 24 24" fill="none" xmlns="http://www.w3.org/2000/svg">
<g clip-path="url(#clip0_235_1225)">
<path d="M12 12H3V13.5H12V12Z" fill="#9FE612"/>
<path d="M9 8.25H1.5V9.75H9V8.25Z" fill="#9FE612"/>
<path d="M22.4393 12.4548L20.1893 7.2048C20.1316 7.06979 20.0355 6.95469 19.913 6.87383C19.7905 6.79297 19.6469 6.74991 19.5001 6.75H17.2501V5.25C17.2501 5.05109 17.1711 4.86032 17.0304 4.71967C16.8898 4.57902 16.699 4.5 16.5001 4.5H4.50008V6H15.7501V15.4172C15.4084 15.6156 15.1093 15.8797 14.8702 16.1943C14.631 16.5089 14.4565 16.8677 14.3567 17.25H9.64351C9.46096 16.543 9.02684 15.9269 8.4225 15.517C7.81817 15.1072 7.08512 14.9319 6.36076 15.0239C5.6364 15.1159 4.97046 15.4689 4.48777 16.0168C4.00507 16.5647 3.73877 17.2698 3.73877 18C3.73877 18.7302 4.00507 19.4353 4.48777 19.9832C4.97046 20.5311 5.6364 20.8841 6.36076 20.9761C7.08512 21.0681 7.81817 20.8928 8.4225 20.483C9.02684 20.0731 9.46096 19.457 9.64351 18.75H14.3567C14.5202 19.3933 14.8935 19.9638 15.4175 20.3712C15.9415 20.7787 16.5863 20.9999 17.2501 20.9999C17.9139 20.9999 18.5587 20.7787 19.0827 20.3712C19.6067 19.9638 19.98 19.3933 20.1435 18.75H21.7501C21.949 18.75 22.1398 18.671 22.2804 18.5303C22.4211 18.3897 22.5001 18.1989 22.5001 18V12.75C22.5001 12.6485 22.4794 12.548 22.4393 12.4548ZM6.75008 19.5C6.45341 19.5 6.1634 19.412 5.91673 19.2472C5.67005 19.0824 5.47779 18.8481 5.36426 18.574C5.25073 18.2999 5.22103 17.9983 5.2789 17.7074C5.33678 17.4164 5.47964 17.1491 5.68942 16.9393C5.8992 16.7296 6.16648 16.5867 6.45745 16.5288C6.74842 16.4709 7.05002 16.5007 7.32411 16.6142C7.5982 16.7277 7.83246 16.92 7.99729 17.1666C8.16211 17.4133 8.25008 17.7033 8.25008 18C8.24963 18.3977 8.09144 18.779 7.81024 19.0602C7.52903 19.3414 7.14777 19.4995 6.75008 19.5ZM17.2501 8.25H19.0057L20.613 12H17.2501V8.25ZM17.2501 19.5C16.9534 19.5 16.6634 19.412 16.4167 19.2472C16.1701 19.0824 15.9778 18.8481 15.8643 18.574C15.7507 18.2999 15.721 17.9983 15.7789 17.7074C15.8368 17.4164 15.9796 17.1491 16.1894 16.9393C16.3992 16.7296 16.6665 16.5867 16.9574 16.5288C17.2484 16.4709 17.55 16.5007 17.8241 16.6142C18.0982 16.7277 18.3325 16.92 18.4973 17.1666C18.6621 17.4133 18.7501 17.7033 18.7501 18C18.7496 18.3977 18.5914 18.779 18.3102 19.0602C18.029 19.3414 17.6478 19.4995 17.2501 19.5ZM21.0001 17.25H20.1435C19.9783 16.6076 19.6045 16.0382 19.0809 15.631C18.5573 15.2239 17.9134 15.0019 17.2501 15V13.5H21.0001V17.25Z" fill="#9FE612"/>
</g>
<defs>
<clipPath id="clip0_235_1225">
<rect width="24" height="24" fill="white"/>
</clipPath>
</defs>
</svg>
