<svg width="24" height="24" viewBox="0 0 24 24" fill="none" xmlns="http://www.w3.org/2000/svg">
<path d="M9.38778 20.4152L9.60015 20.0207L17.9109 4.58321L18.5061 3.47769H17.2505H15.133H14.6844L14.4722 3.87293L6.1842 19.3105L5.59109 20.4152H6.84499H8.93976H9.38778ZM7.74913 6.98941L7.75454 6.99482L7.76006 7.00012C7.99057 7.22141 8.09869 7.4731 8.09869 7.80246C8.09869 8.13257 7.98956 8.39785 7.74913 8.63828C7.50869 8.87872 7.24341 8.98785 6.9133 8.98785C6.58568 8.98785 6.32192 8.88036 6.08291 8.64369C5.85777 8.40679 5.75069 8.13966 5.75069 7.80246C5.75069 7.48651 5.8535 7.22529 6.0829 6.98401C6.3219 6.74733 6.58567 6.63985 6.9133 6.63985C7.24341 6.63985 7.50869 6.74897 7.74913 6.98941ZM20.4621 19.2447L20.4622 19.2447L20.4676 19.2393C21.3537 18.3532 21.803 17.2586 21.803 15.9994C21.803 14.7534 21.3523 13.6683 20.4703 12.785C19.5883 11.8862 18.5015 11.4242 17.2505 11.4242C15.9877 11.4242 14.8923 11.8839 14.0079 12.785C13.126 13.6683 12.6753 14.7534 12.6753 15.9994C12.6753 17.2586 13.1246 18.3532 14.0107 19.2393L14.0106 19.2393L14.0162 19.2447C14.9033 20.1137 15.9962 20.5518 17.2505 20.5518C18.4928 20.5518 19.5772 20.1115 20.4621 19.2447ZM18.0636 16.8352L18.0582 16.8406L18.0529 16.8461C17.8316 17.0767 17.5799 17.1848 17.2505 17.1848C16.9204 17.1848 16.6551 17.0756 16.4147 16.8352C16.1743 16.5948 16.0651 16.3295 16.0651 15.9994C16.0651 15.6693 16.1743 15.404 16.4147 15.1636C16.6551 14.9231 16.9204 14.814 17.2505 14.814C17.5799 14.814 17.8316 14.9221 18.0529 15.1526L18.0582 15.1582L18.0636 15.1636C18.304 15.404 18.4131 15.6693 18.4131 15.9994C18.4131 16.3295 18.304 16.5948 18.0636 16.8352ZM10.1532 11.0423C11.0392 10.1563 11.4885 9.06167 11.4885 7.80246C11.4885 6.5552 11.0369 5.46913 10.1532 4.58536C9.26713 3.69932 8.17251 3.25 6.9133 3.25C5.66604 3.25 4.57997 3.70159 3.6962 4.58536C2.81244 5.46913 2.36084 6.5552 2.36084 7.80246C2.36084 9.06167 2.81016 10.1563 3.6962 11.0423C4.57997 11.9261 5.66604 12.3777 6.9133 12.3777C8.17251 12.3777 9.26713 11.9284 10.1532 11.0423Z" fill="black" stroke="#9FE612" stroke-width="1.5"/>
</svg>
