<svg width="53" height="54" viewBox="0 0 53 54" fill="none" xmlns="http://www.w3.org/2000/svg">
<path fill-rule="evenodd" clip-rule="evenodd" d="M24.9737 51.5381C19.7285 42.7191 11.3146 34.2434 2.53868 28.9378C1.14526 28.0955 0.00293441 27.3326 7.04738e-06 27.2427C-0.00292032 27.1528 0.906514 26.5427 2.02119 25.8867C10.7912 20.7263 19.6803 11.8419 24.973 2.94732C26.3385 0.652882 26.5326 0.455387 26.9051 0.985424C27.1328 1.30946 28.3138 3.11964 29.5296 5.00796C34.4583 12.6642 41.0481 19.3121 48.6085 24.2558C50.4333 25.4489 52.2046 26.609 52.5445 26.834C53.1518 27.2355 53.1518 27.2499 52.5445 27.6515C52.2046 27.8761 50.4333 29.0366 48.6085 30.2297C41.0664 35.1613 34.9313 41.3258 29.7775 49.1505C28.4153 51.2187 27.1188 53.176 26.896 53.5C26.5336 54.0275 26.332 53.8218 24.9737 51.5381Z" fill="#A0E612"/>
</svg>
