<svg width="24" height="24" viewBox="0 0 24 24" fill="none" xmlns="http://www.w3.org/2000/svg">
<path d="M12 18.6143C12.6406 18.6146 13.2793 18.5513 13.9067 18.4256V22.5251L12.1502 21.7932L12 21.7306L11.8497 21.7932L10.0932 22.5252V18.4256C10.7206 18.5513 11.3593 18.6146 12 18.6143ZM12 18.6143C11.9999 18.6143 11.9998 18.6143 11.9998 18.6143L12 18.2236L12.0002 18.6143C12.0001 18.6143 12.0001 18.6143 12 18.6143ZM13.885 12.1504L14.5856 12.5192L14.4519 11.7387L14.0918 9.63662L15.6171 8.14797L16.183 7.59571L15.4006 7.48186L13.293 7.1752L12.3504 5.26286L12 4.55202L11.6496 5.26287L10.707 7.1752L8.59944 7.48186L7.81699 7.59571L8.38285 8.14797L9.90818 9.63662L9.54808 11.7387L9.41439 12.5192L10.115 12.1504L12 11.1582L13.885 12.1504ZM16.8607 21.0207L16.0013 20.6625V17.7493C16.2951 17.6156 16.5819 17.4673 16.8607 17.305V21.0207ZM7.13926 20.9865V17.305C7.4181 17.4673 7.70494 17.6156 7.99873 17.7493V20.6283L7.13926 20.9865ZM4.39062 8.89884C4.39062 4.69742 7.80497 1.27954 12 1.27954C16.195 1.27954 19.6094 4.69738 19.6094 8.8988C19.6094 13.1002 16.195 16.5181 12 16.5181C7.80497 16.5181 4.39062 13.1003 4.39062 8.89884ZM5.26713 8.86607C5.26713 12.5828 8.28669 15.6068 12 15.6068C15.7133 15.6068 18.7328 12.5828 18.7328 8.86607C18.7328 5.14932 15.7133 2.12533 12 2.12533C8.28669 2.12533 5.26713 5.14932 5.26713 8.86607ZM7.36164 8.86607C7.36164 6.30488 9.44322 4.22146 12 4.22146C14.5568 4.22146 16.6383 6.30488 16.6383 8.86603C16.6383 11.4272 14.5567 13.5106 12 13.5106C9.44321 13.5106 7.36164 11.4273 7.36164 8.86607Z" fill="black" stroke="#9FE612" stroke-width="0.78125"/>
</svg>
