<svg width="16" height="17" viewBox="0 0 16 17" fill="none" xmlns="http://www.w3.org/2000/svg">
<path fill-rule="evenodd" clip-rule="evenodd" d="M8.46078 1.16508C10.0442 3.82743 12.5843 6.38613 15.2336 7.98782C15.6543 8.2421 15.9991 8.4724 16 8.49954C16.0009 8.52669 15.7263 8.71088 15.3898 8.9089C12.7423 10.4668 10.0588 13.1489 8.46098 15.834C8.04876 16.5267 7.99014 16.5863 7.87771 16.4263C7.80898 16.3285 7.45244 15.782 7.0854 15.2119C5.59749 12.9006 3.60811 10.8937 1.32572 9.40127C0.774863 9.04107 0.240106 8.69084 0.137495 8.62293C-0.0458298 8.50171 -0.0458298 8.49737 0.137495 8.37615C0.240106 8.30834 0.774863 7.95801 1.32572 7.59781C3.60261 6.10904 5.45472 4.24804 7.01058 1.88587C7.42181 1.26152 7.8132 0.670631 7.88046 0.572808C7.98985 0.413586 8.05073 0.475676 8.46078 1.16508Z" fill="black"/>
</svg>
