<svg width="106" height="18" viewBox="0 0 106 18" fill="none" xmlns="http://www.w3.org/2000/svg">
<path d="M9 0L11.2324 5.92735L17.5595 6.21885L12.6121 10.1736L14.2901 16.2812L9 12.798L3.70993 16.2812L5.38789 10.1736L0.440492 6.21885L6.76759 5.92735L9 0Z" fill="#B7FF26"/>
<path d="M31 0L33.2324 5.92735L39.5595 6.21885L34.6121 10.1736L36.2901 16.2812L31 12.798L25.7099 16.2812L27.3879 10.1736L22.4405 6.21885L28.7676 5.92735L31 0Z" fill="#B7FF26"/>
<path d="M53 0L55.2324 5.92735L61.5595 6.21885L56.6121 10.1736L58.2901 16.2812L53 12.798L47.7099 16.2812L49.3879 10.1736L44.4405 6.21885L50.7676 5.92735L53 0Z" fill="#B7FF26"/>
<path d="M75 0L77.2324 5.92735L83.5595 6.21885L78.6121 10.1736L80.2901 16.2812L75 12.798L69.7099 16.2812L71.3879 10.1736L66.4405 6.21885L72.7676 5.92735L75 0Z" fill="#B7FF26"/>
<path d="M97 0L99.2324 5.92735L105.56 6.21885L100.612 10.1736L102.29 16.2812L97 12.798L91.7099 16.2812L93.3879 10.1736L88.4405 6.21885L94.7676 5.92735L97 0Z" fill="#B7FF26"/>
</svg>
