<svg width="100" height="100" viewBox="0 0 100 100" fill="none" xmlns="http://www.w3.org/2000/svg">
<path d="M80.5239 80.524C76.4613 84.587 71.6381 87.81 66.3298 90.009C61.0216 92.2079 55.3321 93.3397 49.5864 93.3397C43.8407 93.3397 38.1513 92.2079 32.843 90.009C27.5347 87.81 22.7115 84.587 18.6489 80.524C14.5859 76.4614 11.3629 71.6382 9.16395 66.3299C6.96503 61.0216 5.83325 55.3322 5.83325 49.5865C5.83325 43.8408 6.96503 38.1514 9.16395 32.8431C11.3629 27.5348 14.5859 22.7116 18.6489 18.649C22.7115 14.586 27.5347 11.363 32.843 9.16404C38.1513 6.96512 43.8407 5.83334 49.5864 5.83334C55.3321 5.83334 61.0216 6.96512 66.3298 9.16404C71.6381 11.363 76.4613 14.586 80.5239 18.649C84.5869 22.7116 87.81 27.5348 90.0089 32.8431C92.2078 38.1514 93.3396 43.8408 93.3396 49.5865C93.3396 55.3322 92.2078 61.0216 90.0089 66.3299C87.81 71.6382 84.5869 76.4614 80.5239 80.524Z" fill="#9FE612"/>
<path d="M82.9167 16.3083C64.6355 -1.97296 34.9042 -1.97296 16.623 16.3083C-1.652 34.5895 -1.652 64.3204 16.623 82.6016C34.9042 100.877 64.6355 100.877 82.9167 82.6016C101.198 64.3204 101.198 34.5895 82.9167 16.3083ZM78.498 20.7265C82.2769 24.4956 85.2751 28.9735 87.3208 33.9032C89.3665 38.8329 90.4195 44.1177 90.4195 49.455C90.4195 54.7922 89.3665 60.0771 87.3208 65.0067C85.2751 69.9364 82.2769 74.4143 78.498 78.1834C74.729 81.9614 70.2518 84.9587 65.3227 87.0038C60.3936 89.0489 55.1095 90.1013 49.773 90.1013C44.4365 90.1013 39.1524 89.0489 34.2233 87.0038C29.2942 84.9587 24.817 81.9614 21.048 78.1834C17.2691 74.4143 14.2709 69.9364 12.2252 65.0067C10.1795 60.0771 9.12654 54.7922 9.12654 49.455C9.12654 44.1177 10.1795 38.8329 12.2252 33.9032C14.2709 28.9735 17.2691 24.4956 21.048 20.7265C24.817 16.9485 29.2942 13.9513 34.2233 11.9061C39.1524 9.861 44.4365 8.80859 49.773 8.80859C55.1095 8.80859 60.3936 9.861 65.3227 11.9061C70.2518 13.9513 74.729 16.9485 78.498 20.7265Z" fill="#9FE612"/>
<path fill-rule="evenodd" clip-rule="evenodd" d="M68.652 37.0835C67.9516 37.0769 67.2693 37.3058 66.7145 37.7335L43.8708 54.8584L33.2895 44.2772C33.0013 43.9788 32.6564 43.7406 32.2752 43.5769C31.8939 43.4131 31.4838 43.3264 31.0689 43.3228C30.654 43.3192 30.2425 43.3984 29.8584 43.5555C29.4744 43.7126 29.1255 43.9449 28.832 44.2383C28.5386 44.5317 28.3066 44.8804 28.1495 45.2645C27.9923 45.6485 27.9133 46.0603 27.9169 46.4753C27.9205 46.8902 28.0067 47.3002 28.1705 47.6815C28.3342 48.0627 28.5723 48.4072 28.8708 48.6954L41.3708 61.1954C41.9024 61.7286 42.6087 62.0524 43.3597 62.1064C44.1106 62.1603 44.8559 61.9408 45.4583 61.4892L70.4583 42.7392C70.9892 42.3521 71.3846 41.8074 71.5883 41.1828C71.792 40.5581 71.7936 39.885 71.5929 39.2594C71.3922 38.6337 70.9994 38.0873 70.4703 37.6976C69.9412 37.308 69.3028 37.0956 68.6458 37.0896L68.652 37.0835Z" fill="black"/>
</svg>
