<svg width="24" height="24" viewBox="0 0 24 24" fill="none" xmlns="http://www.w3.org/2000/svg">
<path d="M19.8464 6.69597H19.5661V4.18324C19.5632 3.66582 19.3555 3.17042 18.988 2.80455C18.6206 2.43867 18.1231 2.23183 17.6035 2.2289C17.5146 2.21276 17.4233 2.21276 17.3344 2.2289L3.98914 6.69597H3.86578H3.68635L3.4957 6.76297H3.3387L3.15927 6.86348L3.02469 7.05333L2.86769 7.18734L2.74433 7.29902L2.60976 7.46654C2.57387 7.49859 2.54356 7.53632 2.52004 7.57821C2.47841 7.64278 2.44096 7.70992 2.40789 7.77923L2.34061 7.90208C2.30939 7.98228 2.28317 8.06433 2.26211 8.14776C2.26715 8.18856 2.26715 8.22981 2.26211 8.27061C2.25052 8.39691 2.25052 8.524 2.26211 8.65031V19.818C2.26446 20.3222 2.46133 20.8062 2.812 21.17C3.16266 21.5338 3.64031 21.7495 4.14614 21.7724H19.8464C20.366 21.7693 20.8635 21.5625 21.2309 21.1967C21.5984 20.8308 21.8061 20.3354 21.809 19.818V8.65031C21.8061 8.13289 21.5984 7.63749 21.2309 7.27162C20.8635 6.90574 20.366 6.69889 19.8464 6.69597ZM17.6933 3.91522C17.7485 3.93551 17.7963 3.97196 17.8303 4.0198C17.8643 4.06765 17.883 4.12462 17.8839 4.18324V6.69597H9.32724L17.6933 3.91522ZM20.1268 19.818C20.1268 19.892 20.0973 19.9631 20.0447 20.0153C19.9921 20.0677 19.9208 20.0972 19.8464 20.0972H4.14614C4.07179 20.0972 4.00048 20.0677 3.94789 20.0153C3.89532 19.9631 3.86578 19.892 3.86578 19.818V8.65031C3.86578 8.57627 3.89532 8.50525 3.94789 8.45289C4.00048 8.40053 4.07179 8.37112 4.14614 8.37112H19.8464C19.9208 8.37112 19.9921 8.40053 20.0447 8.45289C20.0973 8.50525 20.1268 8.57627 20.1268 8.65031V19.818Z" fill="#9FE612"/>
<path d="M19.8464 6.69597H19.5661V4.18324C19.5632 3.66582 19.3555 3.17042 18.988 2.80455C18.6206 2.43867 18.1231 2.23183 17.6035 2.2289C17.5146 2.21276 17.4233 2.21276 17.3344 2.2289L3.98914 6.69597H3.86578H3.68635L3.4957 6.76297H3.3387L3.15927 6.86348L3.02469 7.05333L2.86769 7.18734L2.74433 7.29902L2.60976 7.46654C2.57387 7.49859 2.54356 7.53632 2.52004 7.57821C2.47841 7.64278 2.44096 7.70992 2.40789 7.77923L2.34061 7.90208C2.30939 7.98228 2.28317 8.06433 2.26211 8.14776C2.26715 8.18856 2.26715 8.22981 2.26211 8.27061C2.25052 8.39691 2.25052 8.524 2.26211 8.65031V19.818C2.26446 20.3222 2.46133 20.8062 2.812 21.17C3.16266 21.5338 3.64031 21.7495 4.14614 21.7724H19.8464C20.366 21.7693 20.8635 21.5625 21.2309 21.1967C21.5984 20.8308 21.8061 20.3354 21.809 19.818V8.65031C21.8061 8.13289 21.5984 7.63749 21.2309 7.27162C20.8635 6.90574 20.366 6.69889 19.8464 6.69597ZM17.6933 3.91522C17.7485 3.93551 17.7963 3.97196 17.8303 4.0198C17.8643 4.06765 17.883 4.12462 17.8839 4.18324V6.69597H9.32724L17.6933 3.91522ZM20.1268 19.818C20.1268 19.892 20.0973 19.9631 20.0447 20.0153C19.9921 20.0677 19.9208 20.0972 19.8464 20.0972H4.14614C4.07179 20.0972 4.00048 20.0677 3.94789 20.0153C3.89532 19.9631 3.86578 19.892 3.86578 19.818V8.65031C3.86578 8.57627 3.89532 8.50525 3.94789 8.45289C4.00048 8.40053 4.07179 8.37112 4.14614 8.37112H19.8464C19.9208 8.37112 19.9921 8.40053 20.0447 8.45289C20.0973 8.50525 20.1268 8.57627 20.1268 8.65031V19.818Z" stroke="#9FE612"/>
<path d="M17.1424 15.9946C17.7561 15.9946 18.2535 15.2982 18.2535 14.439C18.2535 13.5799 17.7561 12.8835 17.1424 12.8835C16.5287 12.8835 16.0312 13.5799 16.0312 14.439C16.0312 15.2982 16.5287 15.9946 17.1424 15.9946Z" fill="#9FE612"/>
</svg>
